# Tiled2Unity generated file. Do not modify by hand.
# Wavefront file for 'NimbusForest_5_mesh_0002.obj'

# Vertices (Count = 56)
v -9984 -3840 0
v -10112 -3840 0
v -10112 -3712 0
v -9984 -3712 0
v -9856 -3840 0
v -9984 -3840 0
v -9984 -3712 0
v -9856 -3712 0
v -9728 -3840 0
v -9856 -3840 0
v -9856 -3712 0
v -9728 -3712 0
v -10048 -3904 0
v -10176 -3904 0
v -10176 -3776 0
v -10048 -3776 0
v -9920 -3904 0
v -10048 -3904 0
v -10048 -3776 0
v -9920 -3776 0
v -9792 -3904 0
v -9920 -3904 0
v -9920 -3776 0
v -9792 -3776 0
v -9536 -3904 0
v -9664 -3904 0
v -9664 -3776 0
v -9536 -3776 0
v -9408 -3904 0
v -9536 -3904 0
v -9536 -3776 0
v -9408 -3776 0
v -9280 -3904 0
v -9408 -3904 0
v -9408 -3776 0
v -9280 -3776 0
v -9216 -3904 0
v -9344 -3904 0
v -9344 -3776 0
v -9216 -3776 0
v -9152 -3904 0
v -9280 -3904 0
v -9280 -3776 0
v -9152 -3776 0
v -9088 -3904 0
v -9216 -3904 0
v -9216 -3776 0
v -9088 -3776 0
v -9024 -3904 0
v -9152 -3904 0
v -9152 -3776 0
v -9024 -3776 0
v -8960 -3904 0
v -9088 -3904 0
v -9088 -3776 0
v -8960 -3776 0

# Texture cooridinates (Count = 14)
vt 0 0
vt 0.1666667 0
vt 0.1666667 1
vt 0 1
vt 0.3333333 0
vt 0.3333333 1
vt 0.8333333 0
vt 1 0
vt 1 1
vt 0.8333333 1
vt 0.6666667 0
vt 0.6666667 1
vt 0.5 0
vt 0.5 1

# Normal
vn 0 0 -1

# Mesh description
g NimbusForest_5_mesh_0002

# Faces
f 1/1/1 2/2/1 3/3/1 4/4/1
f 5/1/1 6/2/1 7/3/1 8/4/1
f 9/1/1 10/2/1 11/3/1 12/4/1
f 13/2/1 14/5/1 15/6/1 16/3/1
f 17/1/1 18/2/1 19/3/1 20/4/1
f 21/1/1 22/2/1 23/3/1 24/4/1
f 25/1/1 26/2/1 27/3/1 28/4/1
f 29/1/1 30/2/1 31/3/1 32/4/1
f 33/7/1 34/8/1 35/9/1 36/10/1
f 37/11/1 38/7/1 39/10/1 40/12/1
f 41/13/1 42/11/1 43/12/1 44/14/1
f 45/5/1 46/13/1 47/14/1 48/6/1
f 49/2/1 50/5/1 51/6/1 52/3/1
f 53/1/1 54/2/1 55/3/1 56/4/1

