# Tiled2Unity generated file. Do not modify by hand.
# Wavefront file for 'Nimbus_Forest_Final_mesh_0005.obj'

# Vertices (Count = 504)
v -15232 -4032 0
v -15360 -4032 0
v -15360 -3904 0
v -15232 -3904 0
v -15104 -4032 0
v -15232 -4032 0
v -15232 -3904 0
v -15104 -3904 0
v -15040 -4032 0
v -15168 -4032 0
v -15168 -3904 0
v -15040 -3904 0
v -15488 -4160 0
v -15616 -4160 0
v -15616 -4032 0
v -15488 -4032 0
v -15424 -4160 0
v -15552 -4160 0
v -15552 -4032 0
v -15424 -4032 0
v -15360 -4160 0
v -15488 -4160 0
v -15488 -4032 0
v -15360 -4032 0
v -14912 -4160 0
v -15040 -4160 0
v -15040 -4032 0
v -14912 -4032 0
v -14848 -4160 0
v -14976 -4160 0
v -14976 -4032 0
v -14848 -4032 0
v -14784 -4160 0
v -14912 -4160 0
v -14912 -4032 0
v -14784 -4032 0
v -14720 -4160 0
v -14848 -4160 0
v -14848 -4032 0
v -14720 -4032 0
v -14656 -4160 0
v -14784 -4160 0
v -14784 -4032 0
v -14656 -4032 0
v -14592 -4160 0
v -14720 -4160 0
v -14720 -4032 0
v -14592 -4032 0
v -14528 -4160 0
v -14656 -4160 0
v -14656 -4032 0
v -14528 -4032 0
v -14464 -4160 0
v -14592 -4160 0
v -14592 -4032 0
v -14464 -4032 0
v -14400 -4160 0
v -14528 -4160 0
v -14528 -4032 0
v -14400 -4032 0
v -14336 -4160 0
v -14464 -4160 0
v -14464 -4032 0
v -14336 -4032 0
v -14272 -4160 0
v -14400 -4160 0
v -14400 -4032 0
v -14272 -4032 0
v -14208 -4160 0
v -14336 -4160 0
v -14336 -4032 0
v -14208 -4032 0
v -14144 -4160 0
v -14272 -4160 0
v -14272 -4032 0
v -14144 -4032 0
v -14080 -4160 0
v -14208 -4160 0
v -14208 -4032 0
v -14080 -4032 0
v -14016 -4160 0
v -14144 -4160 0
v -14144 -4032 0
v -14016 -4032 0
v -13952 -4160 0
v -14080 -4160 0
v -14080 -4032 0
v -13952 -4032 0
v -13888 -4160 0
v -14016 -4160 0
v -14016 -4032 0
v -13888 -4032 0
v -13824 -4160 0
v -13952 -4160 0
v -13952 -4032 0
v -13824 -4032 0
v -13760 -4160 0
v -13888 -4160 0
v -13888 -4032 0
v -13760 -4032 0
v -13696 -4160 0
v -13824 -4160 0
v -13824 -4032 0
v -13696 -4032 0
v -13632 -4160 0
v -13760 -4160 0
v -13760 -4032 0
v -13632 -4032 0
v -13568 -4160 0
v -13696 -4160 0
v -13696 -4032 0
v -13568 -4032 0
v -13504 -4160 0
v -13632 -4160 0
v -13632 -4032 0
v -13504 -4032 0
v -13440 -4160 0
v -13568 -4160 0
v -13568 -4032 0
v -13440 -4032 0
v -13376 -4160 0
v -13504 -4160 0
v -13504 -4032 0
v -13376 -4032 0
v -13312 -4160 0
v -13440 -4160 0
v -13440 -4032 0
v -13312 -4032 0
v -13248 -4160 0
v -13376 -4160 0
v -13376 -4032 0
v -13248 -4032 0
v -13184 -4160 0
v -13312 -4160 0
v -13312 -4032 0
v -13184 -4032 0
v -13120 -4160 0
v -13248 -4160 0
v -13248 -4032 0
v -13120 -4032 0
v -13056 -4160 0
v -13184 -4160 0
v -13184 -4032 0
v -13056 -4032 0
v -12928 -4160 0
v -13056 -4160 0
v -13056 -4032 0
v -12928 -4032 0
v -12864 -4160 0
v -12992 -4160 0
v -12992 -4032 0
v -12864 -4032 0
v -12800 -4160 0
v -12928 -4160 0
v -12928 -4032 0
v -12800 -4032 0
v -12736 -4160 0
v -12864 -4160 0
v -12864 -4032 0
v -12736 -4032 0
v -12672 -4160 0
v -12800 -4160 0
v -12800 -4032 0
v -12672 -4032 0
v -12608 -4160 0
v -12736 -4160 0
v -12736 -4032 0
v -12608 -4032 0
v -12480 -4160 0
v -12608 -4160 0
v -12608 -4032 0
v -12480 -4032 0
v -12416 -4160 0
v -12544 -4160 0
v -12544 -4032 0
v -12416 -4032 0
v -12352 -4160 0
v -12480 -4160 0
v -12480 -4032 0
v -12352 -4032 0
v -12288 -4160 0
v -12416 -4160 0
v -12416 -4032 0
v -12288 -4032 0
v -12224 -4160 0
v -12352 -4160 0
v -12352 -4032 0
v -12224 -4032 0
v -12160 -4160 0
v -12288 -4160 0
v -12288 -4032 0
v -12160 -4032 0
v -12032 -4160 0
v -12160 -4160 0
v -12160 -4032 0
v -12032 -4032 0
v -11968 -4160 0
v -12096 -4160 0
v -12096 -4032 0
v -11968 -4032 0
v -11904 -4160 0
v -12032 -4160 0
v -12032 -4032 0
v -11904 -4032 0
v -11840 -4160 0
v -11968 -4160 0
v -11968 -4032 0
v -11840 -4032 0
v -11776 -4160 0
v -11904 -4160 0
v -11904 -4032 0
v -11776 -4032 0
v -11712 -4160 0
v -11840 -4160 0
v -11840 -4032 0
v -11712 -4032 0
v -11584 -4160 0
v -11712 -4160 0
v -11712 -4032 0
v -11584 -4032 0
v -11520 -4160 0
v -11648 -4160 0
v -11648 -4032 0
v -11520 -4032 0
v -11456 -4160 0
v -11584 -4160 0
v -11584 -4032 0
v -11456 -4032 0
v -11392 -4160 0
v -11520 -4160 0
v -11520 -4032 0
v -11392 -4032 0
v -11328 -4160 0
v -11456 -4160 0
v -11456 -4032 0
v -11328 -4032 0
v -11264 -4160 0
v -11392 -4160 0
v -11392 -4032 0
v -11264 -4032 0
v -11136 -4160 0
v -11264 -4160 0
v -11264 -4032 0
v -11136 -4032 0
v -11072 -4160 0
v -11200 -4160 0
v -11200 -4032 0
v -11072 -4032 0
v -11008 -4160 0
v -11136 -4160 0
v -11136 -4032 0
v -11008 -4032 0
v -10944 -4160 0
v -11072 -4160 0
v -11072 -4032 0
v -10944 -4032 0
v -10880 -4160 0
v -11008 -4160 0
v -11008 -4032 0
v -10880 -4032 0
v -10816 -4160 0
v -10944 -4160 0
v -10944 -4032 0
v -10816 -4032 0
v -10688 -4160 0
v -10816 -4160 0
v -10816 -4032 0
v -10688 -4032 0
v -10624 -4160 0
v -10752 -4160 0
v -10752 -4032 0
v -10624 -4032 0
v -10560 -4160 0
v -10688 -4160 0
v -10688 -4032 0
v -10560 -4032 0
v -10496 -4160 0
v -10624 -4160 0
v -10624 -4032 0
v -10496 -4032 0
v -10432 -4160 0
v -10560 -4160 0
v -10560 -4032 0
v -10432 -4032 0
v -10368 -4160 0
v -10496 -4160 0
v -10496 -4032 0
v -10368 -4032 0
v -10240 -4160 0
v -10368 -4160 0
v -10368 -4032 0
v -10240 -4032 0
v -10176 -4160 0
v -10304 -4160 0
v -10304 -4032 0
v -10176 -4032 0
v -10112 -4160 0
v -10240 -4160 0
v -10240 -4032 0
v -10112 -4032 0
v -10048 -4160 0
v -10176 -4160 0
v -10176 -4032 0
v -10048 -4032 0
v -9984 -4160 0
v -10112 -4160 0
v -10112 -4032 0
v -9984 -4032 0
v -9920 -4160 0
v -10048 -4160 0
v -10048 -4032 0
v -9920 -4032 0
v -9792 -4160 0
v -9920 -4160 0
v -9920 -4032 0
v -9792 -4032 0
v -9728 -4160 0
v -9856 -4160 0
v -9856 -4032 0
v -9728 -4032 0
v -9664 -4160 0
v -9792 -4160 0
v -9792 -4032 0
v -9664 -4032 0
v -9600 -4160 0
v -9728 -4160 0
v -9728 -4032 0
v -9600 -4032 0
v -9536 -4160 0
v -9664 -4160 0
v -9664 -4032 0
v -9536 -4032 0
v -9472 -4160 0
v -9600 -4160 0
v -9600 -4032 0
v -9472 -4032 0
v -9344 -4160 0
v -9472 -4160 0
v -9472 -4032 0
v -9344 -4032 0
v -9280 -4160 0
v -9408 -4160 0
v -9408 -4032 0
v -9280 -4032 0
v -9216 -4160 0
v -9344 -4160 0
v -9344 -4032 0
v -9216 -4032 0
v -9152 -4160 0
v -9280 -4160 0
v -9280 -4032 0
v -9152 -4032 0
v -9088 -4160 0
v -9216 -4160 0
v -9216 -4032 0
v -9088 -4032 0
v -9024 -4160 0
v -9152 -4160 0
v -9152 -4032 0
v -9024 -4032 0
v -8896 -4160 0
v -9024 -4160 0
v -9024 -4032 0
v -8896 -4032 0
v -8832 -4160 0
v -8960 -4160 0
v -8960 -4032 0
v -8832 -4032 0
v -8768 -4160 0
v -8896 -4160 0
v -8896 -4032 0
v -8768 -4032 0
v -8704 -4160 0
v -8832 -4160 0
v -8832 -4032 0
v -8704 -4032 0
v -8640 -4160 0
v -8768 -4160 0
v -8768 -4032 0
v -8640 -4032 0
v -8576 -4160 0
v -8704 -4160 0
v -8704 -4032 0
v -8576 -4032 0
v -8448 -4160 0
v -8576 -4160 0
v -8576 -4032 0
v -8448 -4032 0
v -8384 -4160 0
v -8512 -4160 0
v -8512 -4032 0
v -8384 -4032 0
v -8320 -4160 0
v -8448 -4160 0
v -8448 -4032 0
v -8320 -4032 0
v -8256 -4160 0
v -8384 -4160 0
v -8384 -4032 0
v -8256 -4032 0
v -8192 -4160 0
v -8320 -4160 0
v -8320 -4032 0
v -8192 -4032 0
v -8128 -4160 0
v -8256 -4160 0
v -8256 -4032 0
v -8128 -4032 0
v -8000 -4160 0
v -8128 -4160 0
v -8128 -4032 0
v -8000 -4032 0
v -7936 -4160 0
v -8064 -4160 0
v -8064 -4032 0
v -7936 -4032 0
v -7872 -4160 0
v -8000 -4160 0
v -8000 -4032 0
v -7872 -4032 0
v -7808 -4160 0
v -7936 -4160 0
v -7936 -4032 0
v -7808 -4032 0
v -7744 -4160 0
v -7872 -4160 0
v -7872 -4032 0
v -7744 -4032 0
v -7680 -4160 0
v -7808 -4160 0
v -7808 -4032 0
v -7680 -4032 0
v -7552 -4160 0
v -7680 -4160 0
v -7680 -4032 0
v -7552 -4032 0
v -7488 -4160 0
v -7616 -4160 0
v -7616 -4032 0
v -7488 -4032 0
v -7424 -4160 0
v -7552 -4160 0
v -7552 -4032 0
v -7424 -4032 0
v -7360 -4160 0
v -7488 -4160 0
v -7488 -4032 0
v -7360 -4032 0
v -7296 -4160 0
v -7424 -4160 0
v -7424 -4032 0
v -7296 -4032 0
v -7232 -4160 0
v -7360 -4160 0
v -7360 -4032 0
v -7232 -4032 0
v -7104 -4160 0
v -7232 -4160 0
v -7232 -4032 0
v -7104 -4032 0
v -7040 -4160 0
v -7168 -4160 0
v -7168 -4032 0
v -7040 -4032 0
v -6976 -4160 0
v -7104 -4160 0
v -7104 -4032 0
v -6976 -4032 0
v -6912 -4160 0
v -7040 -4160 0
v -7040 -4032 0
v -6912 -4032 0
v -6848 -4160 0
v -6976 -4160 0
v -6976 -4032 0
v -6848 -4032 0
v -6784 -4160 0
v -6912 -4160 0
v -6912 -4032 0
v -6784 -4032 0
v -6656 -4160 0
v -6784 -4160 0
v -6784 -4032 0
v -6656 -4032 0
v -6592 -4160 0
v -6720 -4160 0
v -6720 -4032 0
v -6592 -4032 0
v -6528 -4160 0
v -6656 -4160 0
v -6656 -4032 0
v -6528 -4032 0
v -6464 -4160 0
v -6592 -4160 0
v -6592 -4032 0
v -6464 -4032 0
v -6400 -4160 0
v -6528 -4160 0
v -6528 -4032 0
v -6400 -4032 0
v -6336 -4160 0
v -6464 -4160 0
v -6464 -4032 0
v -6336 -4032 0

# Texture cooridinates (Count = 14)
vt 0 0
vt 0.1666667 0
vt 0.1666667 1
vt 0 1
vt 0.8333333 0
vt 1 0
vt 1 1
vt 0.8333333 1
vt 0.6666667 0
vt 0.6666667 1
vt 0.5 0
vt 0.5 1
vt 0.3333333 0
vt 0.3333333 1

# Normal
vn 0 0 -1

# Mesh description
g Nimbus_Forest_Final_mesh_0005

# Faces
f 1/1/1 2/2/1 3/3/1 4/4/1
f 5/1/1 6/2/1 7/3/1 8/4/1
f 9/1/1 10/2/1 11/3/1 12/4/1
f 13/5/1 14/6/1 15/7/1 16/8/1
f 17/9/1 18/5/1 19/8/1 20/10/1
f 21/11/1 22/9/1 23/10/1 24/12/1
f 25/11/1 26/9/1 27/10/1 28/12/1
f 29/13/1 30/11/1 31/12/1 32/14/1
f 33/2/1 34/13/1 35/14/1 36/3/1
f 37/1/1 38/2/1 39/3/1 40/4/1
f 41/5/1 42/6/1 43/7/1 44/8/1
f 45/5/1 46/6/1 47/7/1 48/8/1
f 49/9/1 50/5/1 51/8/1 52/10/1
f 53/11/1 54/9/1 55/10/1 56/12/1
f 57/13/1 58/11/1 59/12/1 60/14/1
f 61/2/1 62/13/1 63/14/1 64/3/1
f 65/1/1 66/2/1 67/3/1 68/4/1
f 69/5/1 70/6/1 71/7/1 72/8/1
f 73/5/1 74/6/1 75/7/1 76/8/1
f 77/9/1 78/5/1 79/8/1 80/10/1
f 81/11/1 82/9/1 83/10/1 84/12/1
f 85/13/1 86/11/1 87/12/1 88/14/1
f 89/2/1 90/13/1 91/14/1 92/3/1
f 93/1/1 94/2/1 95/3/1 96/4/1
f 97/5/1 98/6/1 99/7/1 100/8/1
f 101/9/1 102/5/1 103/8/1 104/10/1
f 105/11/1 106/9/1 107/10/1 108/12/1
f 109/13/1 110/11/1 111/12/1 112/14/1
f 113/2/1 114/13/1 115/14/1 116/3/1
f 117/1/1 118/2/1 119/3/1 120/4/1
f 121/5/1 122/6/1 123/7/1 124/8/1
f 125/9/1 126/5/1 127/8/1 128/10/1
f 129/11/1 130/9/1 131/10/1 132/12/1
f 133/13/1 134/11/1 135/12/1 136/14/1
f 137/2/1 138/13/1 139/14/1 140/3/1
f 141/1/1 142/2/1 143/3/1 144/4/1
f 145/5/1 146/6/1 147/7/1 148/8/1
f 149/9/1 150/5/1 151/8/1 152/10/1
f 153/11/1 154/9/1 155/10/1 156/12/1
f 157/13/1 158/11/1 159/12/1 160/14/1
f 161/2/1 162/13/1 163/14/1 164/3/1
f 165/1/1 166/2/1 167/3/1 168/4/1
f 169/5/1 170/6/1 171/7/1 172/8/1
f 173/9/1 174/5/1 175/8/1 176/10/1
f 177/11/1 178/9/1 179/10/1 180/12/1
f 181/13/1 182/11/1 183/12/1 184/14/1
f 185/2/1 186/13/1 187/14/1 188/3/1
f 189/1/1 190/2/1 191/3/1 192/4/1
f 193/5/1 194/6/1 195/7/1 196/8/1
f 197/9/1 198/5/1 199/8/1 200/10/1
f 201/11/1 202/9/1 203/10/1 204/12/1
f 205/13/1 206/11/1 207/12/1 208/14/1
f 209/2/1 210/13/1 211/14/1 212/3/1
f 213/1/1 214/2/1 215/3/1 216/4/1
f 217/5/1 218/6/1 219/7/1 220/8/1
f 221/9/1 222/5/1 223/8/1 224/10/1
f 225/11/1 226/9/1 227/10/1 228/12/1
f 229/13/1 230/11/1 231/12/1 232/14/1
f 233/2/1 234/13/1 235/14/1 236/3/1
f 237/1/1 238/2/1 239/3/1 240/4/1
f 241/5/1 242/6/1 243/7/1 244/8/1
f 245/9/1 246/5/1 247/8/1 248/10/1
f 249/11/1 250/9/1 251/10/1 252/12/1
f 253/13/1 254/11/1 255/12/1 256/14/1
f 257/2/1 258/13/1 259/14/1 260/3/1
f 261/1/1 262/2/1 263/3/1 264/4/1
f 265/5/1 266/6/1 267/7/1 268/8/1
f 269/9/1 270/5/1 271/8/1 272/10/1
f 273/11/1 274/9/1 275/10/1 276/12/1
f 277/13/1 278/11/1 279/12/1 280/14/1
f 281/2/1 282/13/1 283/14/1 284/3/1
f 285/1/1 286/2/1 287/3/1 288/4/1
f 289/5/1 290/6/1 291/7/1 292/8/1
f 293/9/1 294/5/1 295/8/1 296/10/1
f 297/11/1 298/9/1 299/10/1 300/12/1
f 301/13/1 302/11/1 303/12/1 304/14/1
f 305/2/1 306/13/1 307/14/1 308/3/1
f 309/1/1 310/2/1 311/3/1 312/4/1
f 313/5/1 314/6/1 315/7/1 316/8/1
f 317/9/1 318/5/1 319/8/1 320/10/1
f 321/11/1 322/9/1 323/10/1 324/12/1
f 325/13/1 326/11/1 327/12/1 328/14/1
f 329/2/1 330/13/1 331/14/1 332/3/1
f 333/1/1 334/2/1 335/3/1 336/4/1
f 337/5/1 338/6/1 339/7/1 340/8/1
f 341/9/1 342/5/1 343/8/1 344/10/1
f 345/11/1 346/9/1 347/10/1 348/12/1
f 349/13/1 350/11/1 351/12/1 352/14/1
f 353/2/1 354/13/1 355/14/1 356/3/1
f 357/1/1 358/2/1 359/3/1 360/4/1
f 361/5/1 362/6/1 363/7/1 364/8/1
f 365/9/1 366/5/1 367/8/1 368/10/1
f 369/11/1 370/9/1 371/10/1 372/12/1
f 373/13/1 374/11/1 375/12/1 376/14/1
f 377/2/1 378/13/1 379/14/1 380/3/1
f 381/1/1 382/2/1 383/3/1 384/4/1
f 385/5/1 386/6/1 387/7/1 388/8/1
f 389/9/1 390/5/1 391/8/1 392/10/1
f 393/11/1 394/9/1 395/10/1 396/12/1
f 397/13/1 398/11/1 399/12/1 400/14/1
f 401/2/1 402/13/1 403/14/1 404/3/1
f 405/1/1 406/2/1 407/3/1 408/4/1
f 409/5/1 410/6/1 411/7/1 412/8/1
f 413/9/1 414/5/1 415/8/1 416/10/1
f 417/11/1 418/9/1 419/10/1 420/12/1
f 421/13/1 422/11/1 423/12/1 424/14/1
f 425/2/1 426/13/1 427/14/1 428/3/1
f 429/1/1 430/2/1 431/3/1 432/4/1
f 433/5/1 434/6/1 435/7/1 436/8/1
f 437/9/1 438/5/1 439/8/1 440/10/1
f 441/11/1 442/9/1 443/10/1 444/12/1
f 445/13/1 446/11/1 447/12/1 448/14/1
f 449/2/1 450/13/1 451/14/1 452/3/1
f 453/1/1 454/2/1 455/3/1 456/4/1
f 457/5/1 458/6/1 459/7/1 460/8/1
f 461/9/1 462/5/1 463/8/1 464/10/1
f 465/11/1 466/9/1 467/10/1 468/12/1
f 469/13/1 470/11/1 471/12/1 472/14/1
f 473/2/1 474/13/1 475/14/1 476/3/1
f 477/1/1 478/2/1 479/3/1 480/4/1
f 481/5/1 482/6/1 483/7/1 484/8/1
f 485/9/1 486/5/1 487/8/1 488/10/1
f 489/11/1 490/9/1 491/10/1 492/12/1
f 493/13/1 494/11/1 495/12/1 496/14/1
f 497/2/1 498/13/1 499/14/1 500/3/1
f 501/1/1 502/2/1 503/3/1 504/4/1

